<?xml version="1.0" encoding="iso-8859-1"?>
<!-- Generator: Adobe Illustrator 18.0.0, SVG Export Plug-In . SVG Version: 6.00 Build 0)  -->
<!DOCTYPE svg PUBLIC "-//W3C//DTD SVG 1.1//EN" "http://www.w3.org/Graphics/SVG/1.1/DTD/svg11.dtd">
<svg version="1.1" id="Capa_1" xmlns="http://www.w3.org/2000/svg" xmlns:xlink="http://www.w3.org/1999/xlink" x="0px" y="0px"
	 viewBox="0 0 373 373" style="enable-background:new 0 0 373 373;" xml:space="preserve">
<g>
	<path d="M7.5,126.27H39c4.142,0,7.5-3.358,7.5-7.5V46.5h72.27c4.142,0,7.5-3.358,7.5-7.5V7.5c0-4.142-3.358-7.5-7.5-7.5H7.5
		C3.358,0,0,3.358,0,7.5v111.27C0,122.912,3.358,126.27,7.5,126.27z M15,15h96.27v16.5H39c-4.142,0-7.5,3.358-7.5,7.5v72.27H15V15z"
		/>
	<path d="M365.5,0H254.23c-4.143,0-7.5,3.358-7.5,7.5V39c0,4.142,3.357,7.5,7.5,7.5H326.5v72.27c0,4.142,3.357,7.5,7.5,7.5h31.5
		c4.143,0,7.5-3.358,7.5-7.5V7.5C373,3.358,369.643,0,365.5,0z M358,111.27h-16.5V39c0-4.142-3.357-7.5-7.5-7.5H261.73V15H358
		V111.27z"/>
	<path d="M118.77,326.5H46.5v-72.27c0-4.142-3.358-7.5-7.5-7.5H7.5c-4.142,0-7.5,3.358-7.5,7.5V365.5c0,4.142,3.358,7.5,7.5,7.5
		h111.27c4.142,0,7.5-3.358,7.5-7.5V334C126.27,329.858,122.912,326.5,118.77,326.5z M111.27,358H15v-96.27h16.5V334
		c0,4.142,3.358,7.5,7.5,7.5h72.27V358z"/>
	<path d="M365.5,246.73H334c-4.143,0-7.5,3.358-7.5,7.5v72.27H254.23c-4.143,0-7.5,3.358-7.5,7.5v31.5c0,4.142,3.357,7.5,7.5,7.5
		H365.5c4.143,0,7.5-3.358,7.5-7.5V254.23C373,250.088,369.643,246.73,365.5,246.73z M358,358H261.73v-16.5H334
		c4.143,0,7.5-3.358,7.5-7.5v-72.27H358V358z"/>
	<path d="M249.635,202.25v-31.5c0-4.142-3.357-7.5-7.5-7.5H209.75v-32.385c0-4.142-3.357-7.5-7.5-7.5h-31.5
		c-4.142,0-7.5,3.358-7.5,7.5v32.385h-32.385c-4.142,0-7.5,3.358-7.5,7.5v31.5c0,4.142,3.358,7.5,7.5,7.5h32.385v32.385
		c0,4.142,3.358,7.5,7.5,7.5h31.5c4.143,0,7.5-3.358,7.5-7.5V209.75h32.385C246.278,209.75,249.635,206.392,249.635,202.25z
		 M234.635,194.75H202.25c-4.143,0-7.5,3.358-7.5,7.5v32.385h-16.5V202.25c0-4.142-3.358-7.5-7.5-7.5h-32.385v-16.5h32.385
		c4.142,0,7.5-3.358,7.5-7.5v-32.385h16.5v32.385c0,4.142,3.357,7.5,7.5,7.5h32.385V194.75z"/>
</g>
<g>
</g>
<g>
</g>
<g>
</g>
<g>
</g>
<g>
</g>
<g>
</g>
<g>
</g>
<g>
</g>
<g>
</g>
<g>
</g>
<g>
</g>
<g>
</g>
<g>
</g>
<g>
</g>
<g>
</g>
</svg>
